<?xml version="1.0" encoding="UTF-8" standalone="no"?>
<!-- Created with Inkscape (http://www.inkscape.org/) -->

<svg
   width="338.88287"
   height="270.7403"
   id="svg2"
   sodipodi:version="0.32"
   inkscape:version="1.3.2 (091e20e, 2023-11-25, custom)"
   version="1.0"
   inkscape:output_extension="org.inkscape.output.svg.inkscape"
   sodipodi:docname="Kwality Wall's 2023.svg"
   xml:space="preserve"
   xmlns:inkscape="http://www.inkscape.org/namespaces/inkscape"
   xmlns:sodipodi="http://sodipodi.sourceforge.net/DTD/sodipodi-0.dtd"
   xmlns="http://www.w3.org/2000/svg"
   xmlns:svg="http://www.w3.org/2000/svg"><defs
     id="defs1"><inkscape:path-effect
       effect="mirror_symmetry"
       start_point="1666.4915,1101.1128"
       end_point="1666.4915,1398.2983"
       center_point="1666.4915,1249.7056"
       id="path-effect13"
       is_visible="true"
       lpeversion="1.2"
       lpesatellites=""
       mode="free"
       discard_orig_path="false"
       fuse_paths="false"
       oposite_fuse="false"
       split_items="false"
       split_open="false"
       link_styles="false" /><inkscape:path-effect
       effect="mirror_symmetry"
       start_point="1666.6008,1101.1128"
       end_point="1666.6008,1398.1886"
       center_point="1666.6008,1249.6507"
       id="path-effect12"
       is_visible="true"
       lpeversion="1.2"
       lpesatellites=""
       mode="free"
       discard_orig_path="false"
       fuse_paths="false"
       oposite_fuse="false"
       split_items="false"
       split_open="false"
       link_styles="false" /><linearGradient
       id="linearGradient9"><stop
         style="stop-color:#c8251b;stop-opacity:1;"
         offset="0"
         id="stop8" /><stop
         style="stop-color:#ed2e23;stop-opacity:1;"
         offset="1"
         id="stop9" /></linearGradient><linearGradient
       id="linearGradient3"><stop
         style="stop-color:#b7060e;stop-opacity:1;"
         offset="0"
         id="stop2" /><stop
         style="stop-color:#dc1213;stop-opacity:1;"
         offset="1"
         id="stop3" /></linearGradient></defs><sodipodi:namedview
     id="namedview1"
     pagecolor="#505050"
     bordercolor="#eeeeee"
     borderopacity="1"
     inkscape:showpageshadow="0"
     inkscape:pageopacity="0"
     inkscape:pagecheckerboard="0"
     inkscape:deskcolor="#d1d1d1"
     inkscape:zoom="1"
     inkscape:cx="164.5"
     inkscape:cy="160.5"
     inkscape:window-width="1920"
     inkscape:window-height="991"
     inkscape:window-x="-9"
     inkscape:window-y="-9"
     inkscape:window-maximized="1"
     inkscape:current-layer="layer1" /><g
     inkscape:label="Layer 1"
     inkscape:groupmode="layer"
     id="layer1"
     transform="translate(-863.40343,-1173.1917)"><g
       id="g13"><path
         id="path827-2-7-3-4"
         style="font-variation-settings:normal;display:inline;vector-effect:none;fill:#e2211b;fill-opacity:1;fill-rule:nonzero;stroke:none;stroke-width:0.534157;stroke-linecap:butt;stroke-linejoin:miter;stroke-miterlimit:4;stroke-dasharray:none;stroke-dashoffset:0;stroke-opacity:1;-inkscape-stroke:none;stop-color:#000000"
         d="m 961.35459,1173.1917 c -44.05187,0 -97.95116,22.029 -97.95116,93.2129 0,41.3977 24.06496,77.4812 54.71874,105.9414 46.81279,43.463 114.72263,71.586 114.72263,71.586 0,0 67.91,-28.123 114.7227,-71.586 30.6538,-28.4602 54.7188,-64.5437 54.7188,-105.9414 0,-71.1839 -53.8993,-93.2129 -97.9512,-93.2129 -44.403,0 -71.4903,19.8399 -71.4903,19.8399 0,0 -27.0871,-19.8399 -71.49021,-19.8399 z" /><path
         id="path2833-7"
         d="m 987.529,1382.0494 -5.37722,-5.9708 1.3e-4,5.3775 -3.64131,-7e-4 -4.6e-4,-16.6827 3.64132,7e-4 1.7e-4,5.9286 5.33519,-6.3939 2.58319,2.2863 -5.92835,6.6054 6.09689,6.3932 z"
         style="fill:#ffffff;fill-rule:evenodd;stroke:none;stroke-width:4.24471" /><path
         id="path2835-4"
         d="m 1007.4764,1382.0923 -3.9379,-9.3581 -3.89525,9.357 -6.9441,-16.4281 3.30279,-1.5661 3.81024,9.9497 3.76872,-9.9925 3.9371,9.9932 3.8116,-9.951 3.0906,1.5251 z"
         style="fill:#ffffff;fill-rule:evenodd;stroke:none;stroke-width:4.24471" /><path
         id="path2837-1"
         d="m 1024.3149,1375.5563 -4.2343,5e-4 2.1168,-4.6162 z m 6.2246,4.8269 -8.299,-16.302 -8.3414,16.3017 3.2174,1.6098 1.4392,-3.176 7.3261,-9e-4 1.439,3.1346 z"
         style="fill:#ffffff;fill-rule:evenodd;stroke:none;stroke-width:4.24471" /><path
         id="path2839-0"
         d="m 1033.8512,1381.4548 -5e-4,-16.6823 3.5989,3e-4 -10e-5,13.1687 5.5053,-10e-5 5e-4,3.514 z"
         style="fill:#ffffff;fill-rule:evenodd;stroke:none;stroke-width:4.24471" /><path
         id="path2835-4-6"
         d="m 1005.7514,1408.2663 -3.9379,-9.3581 -3.89525,9.357 -6.9441,-16.4281 3.30279,-1.5661 3.81024,9.9497 3.76872,-9.9925 3.9371,9.9932 3.8116,-9.951 3.0906,1.5251 z"
         style="fill:#ffffff;fill-rule:evenodd;stroke:none;stroke-width:4.24471" /><path
         id="path2837-1-1"
         d="m 1022.8899,1401.7303 -4.2343,5e-4 2.1168,-4.6162 z m 6.2246,4.8269 -8.299,-16.302 -8.3414,16.3017 3.2174,1.6098 1.4392,-3.176 7.3261,-9e-4 1.439,3.1346 z"
         style="fill:#ffffff;fill-rule:evenodd;stroke:none;stroke-width:4.24471" /><path
         id="path2839-0-9"
         d="m 1032.5264,1407.6288 -5e-4,-16.6823 3.5989,3e-4 -10e-5,13.1687 5.5053,-1e-4 5e-4,3.514 z"
         style="fill:#ffffff;fill-rule:evenodd;stroke:none;stroke-width:4.24471" /><path
         id="path2839-0-9-0"
         d="m 1045.6307,1407.6288 -6e-4,-16.6823 3.5989,3e-4 -10e-5,13.1687 5.5053,-1e-4 6e-4,3.514 z"
         style="fill:#ffffff;fill-rule:evenodd;stroke:none;stroke-width:4.24471" /><path
         id="path2841-1"
         d="m 1047.2991,1381.4551 4e-4,-16.6827 3.6412,8e-4 -7e-4,16.6822 z"
         style="fill:#ffffff;fill-rule:evenodd;stroke:none;stroke-width:4.24471" /><path
         id="path2843-9"
         d="m 1063.3109,1368.288 -5e-4,13.1674 -3.5989,-3e-4 1e-4,-13.1675 h -4.9118 l -7e-4,-3.5135 13.3797,2e-4 7e-4,3.5135 z"
         style="fill:#ffffff;fill-rule:evenodd;stroke:none;stroke-width:4.24471" /><path
         id="path2845-6"
         d="m 1079.4176,1374.0034 8e-4,7.452 -3.5989,-3e-4 v -7.41 l -5.9703,-7.5783 2.8372,-2.3294 4.9955,6.6896 5.0387,-6.6891 2.6682,2.3281 z"
         style="fill:#ffffff;fill-rule:evenodd;stroke:none;stroke-width:4.24471" /><path
         id="path2855-0"
         d="m 1057.7611,1397.4116 -2.2869,-1.1859 2.7109,-6.6045 3.0908,1.6092 z"
         style="fill:#ffffff;fill-rule:evenodd;stroke:none;stroke-width:4.24471" /><path
         id="path2857-9"
         d="m 1068.4716,1407.5871 c -2.3296,6e-4 -3.9387,-0.9735 -5.2936,-2.8795 l 2.5405,-2.4128 c 0.6782,0.8469 1.5245,1.6935 2.7097,1.6943 0.8053,10e-5 1.5672,-0.5932 1.5678,-1.4405 0,-0.8893 -0.5934,-1.3541 -1.3556,-1.609 l -1.6513,-0.5508 c -2.1593,-0.7197 -3.6839,-2.2858 -3.684,-4.6563 7e-4,-2.8373 2.1176,-5.2512 5.0394,-5.2513 2.3284,-6e-4 3.8108,1.1008 5.165,2.8795 l -2.5818,2.5401 c -0.5937,-0.8464 -1.4408,-1.7784 -2.5415,-1.7783 -0.8461,-5e-4 -1.4824,0.6353 -1.4817,1.4827 -6e-4,0.8468 0.7615,1.2281 1.4822,1.4811 l 1.6937,0.5934 c 2.1169,0.7617 3.4291,2.4134 3.4289,4.6574 l 6e-4,0.043 c -7e-4,2.8378 -2.1604,5.2087 -5.0385,5.2081"
         style="fill:#ffffff;fill-rule:evenodd;stroke:none;stroke-width:4.24471" /><path
         id="path12"
         style="fill:#ffffff;fill-rule:evenodd;stroke:none;stroke-width:7.46086"
         d="m 964.29602,1198.2738 c -53.40294,0.6533 -72.10757,32.0448 -71.8125,57.1328 0.54104,46.0118 49.22563,72.011 61.54493,77.6426 38.64705,17.6779 73.35725,20.0295 76.94335,20.332 4.8047,0.4613 6.4299,-3.8356 2.0762,-5.4024 -1.2778,-0.4462 -42.81169,-13.1762 -58.74416,-21.1347 -23.60583,-11.7919 -55.11458,-31.8166 -55.93555,-62.2735 -0.80725,-29.36 26.51019,-46.1683 56.56445,-46.5371 24.61976,-0.2998 45.94816,9.4383 56.46096,18.5586 1.7523,1.5408 3.0804,1.6994 5.1465,0.2813 3.9549,-2.7669 24.0039,-18.2739 52.8418,-18.625 37.7981,-0.4646 60.0191,21.4062 60.2968,44.9902 0.5862,49.7106 -59.7881,72.0147 -72.9629,77.207 -2.7045,1.0743 -1.6768,4.8192 1.7852,4.3145 8.6553,-1.2637 98.4843,-25.6043 97.8047,-83.4668 -0.4986,-42.3136 -41.7877,-63.4888 -80.2207,-63.0176 -31.903,0.3897 -52.5988,14.9808 -60.2246,20.2207 -1.5484,1.0582 -2.7005,1.245 -4.8008,-0.2871 -11.6037,-8.7019 -37.11589,-20.2993 -66.76368,-19.9355 z m 115.33208,37.6074 c -17.3348,0.2115 -33.0597,9.6077 -43.2618,21.7695 -1.0818,1.3458 -2.6991,1.2495 -3.7539,0.041 -9.8461,-11.5693 -26.3658,-20.9158 -43.75778,-20.7031 -25.77031,0.3182 -38.51309,17.1984 -38.33789,32.2422 0.69814,39.6943 76.49037,62.3784 84.86917,62.2754 12.0756,-0.148 83.563,-24.6383 83.3281,-64.3359 -0.1726,-14.5759 -12.4523,-30.5782 -36.7012,-31.2754 v 0.01 c -0.7827,-0.021 -1.5779,-0.014 -2.3847,-0.022 z m -11.8594,18.7266 c 13.0018,-0.1599 23.3974,9.146 23.5195,19.5039 -0.2095,26.4506 -44.7952,48.5277 -55.9473,48.664 -10.2256,0.1294 -53.85871,-19.941 -54.75972,-47.3047 -0.13041,-10.3576 7.56696,-19.8858 20.56832,-20.0449 14.6184,-0.1767 25.4937,10.7394 31.1016,20.6836 1.181,2.1258 3.6083,2.2691 4.9121,-0.051 5.7748,-10.1977 15.9879,-21.2615 30.6055,-21.4414 z" /></g></g></svg>
